<mxfile host="app.diagrams.net" agent="Mozilla/5.0 (Windows NT 10.0; Win64; x64) AppleWebKit/537.36 (KHTML, like Gecko) Chrome/134.0.0.0 Safari/537.36" version="26.1.0">
  <diagram name="Page-1" id="g-1Wrvs-FxQv0FjxgxUX">
    <mxGraphModel dx="1120" dy="405" grid="1" gridSize="10" guides="1" tooltips="1" connect="1" arrows="1" fold="1" page="1" pageScale="1" pageWidth="850" pageHeight="1100" math="0" shadow="0">
      <root>
        <mxCell id="0" />
        <mxCell id="1" parent="0" />
        <mxCell id="7wuV0SCUWrZMiEafqpH3-17" value="" style="edgeStyle=orthogonalEdgeStyle;rounded=0;orthogonalLoop=1;jettySize=auto;html=1;entryX=0;entryY=0.5;entryDx=0;entryDy=0;entryPerimeter=0;" edge="1" parent="1" source="7wuV0SCUWrZMiEafqpH3-1" target="7wuV0SCUWrZMiEafqpH3-18">
          <mxGeometry relative="1" as="geometry">
            <mxPoint x="560" y="170" as="targetPoint" />
          </mxGeometry>
        </mxCell>
        <mxCell id="7wuV0SCUWrZMiEafqpH3-1" value="RCSProcessService" style="rounded=0;whiteSpace=wrap;html=1;" vertex="1" parent="1">
          <mxGeometry x="355" y="230" width="120" height="60" as="geometry" />
        </mxCell>
        <mxCell id="7wuV0SCUWrZMiEafqpH3-5" value="" style="edgeStyle=orthogonalEdgeStyle;rounded=0;orthogonalLoop=1;jettySize=auto;html=1;" edge="1" parent="1" source="7wuV0SCUWrZMiEafqpH3-2" target="7wuV0SCUWrZMiEafqpH3-1">
          <mxGeometry relative="1" as="geometry" />
        </mxCell>
        <mxCell id="7wuV0SCUWrZMiEafqpH3-6" value="order_process" style="edgeLabel;html=1;align=center;verticalAlign=middle;resizable=0;points=[];" vertex="1" connectable="0" parent="7wuV0SCUWrZMiEafqpH3-5">
          <mxGeometry x="-0.3" y="3" relative="1" as="geometry">
            <mxPoint as="offset" />
          </mxGeometry>
        </mxCell>
        <mxCell id="7wuV0SCUWrZMiEafqpH3-2" value="PermitCore" style="rounded=0;whiteSpace=wrap;html=1;" vertex="1" parent="1">
          <mxGeometry x="120" y="80" width="120" height="60" as="geometry" />
        </mxCell>
        <mxCell id="7wuV0SCUWrZMiEafqpH3-10" value="" style="edgeStyle=orthogonalEdgeStyle;rounded=0;orthogonalLoop=1;jettySize=auto;html=1;entryX=0;entryY=0.5;entryDx=0;entryDy=0;" edge="1" parent="1" source="7wuV0SCUWrZMiEafqpH3-3" target="7wuV0SCUWrZMiEafqpH3-1">
          <mxGeometry relative="1" as="geometry">
            <mxPoint x="320" y="260" as="targetPoint" />
            <Array as="points">
              <mxPoint x="180" y="260" />
            </Array>
          </mxGeometry>
        </mxCell>
        <mxCell id="7wuV0SCUWrZMiEafqpH3-11" value="pilot_order_process / pilot_leg_process" style="edgeLabel;html=1;align=center;verticalAlign=middle;resizable=0;points=[];" vertex="1" connectable="0" parent="7wuV0SCUWrZMiEafqpH3-10">
          <mxGeometry x="-0.6593" y="-2" relative="1" as="geometry">
            <mxPoint as="offset" />
          </mxGeometry>
        </mxCell>
        <mxCell id="7wuV0SCUWrZMiEafqpH3-3" value="PilotCarCore" style="rounded=0;whiteSpace=wrap;html=1;" vertex="1" parent="1">
          <mxGeometry x="110" y="320" width="120" height="60" as="geometry" />
        </mxCell>
        <mxCell id="7wuV0SCUWrZMiEafqpH3-14" value="" style="edgeStyle=orthogonalEdgeStyle;rounded=0;orthogonalLoop=1;jettySize=auto;html=1;" edge="1" parent="1" source="7wuV0SCUWrZMiEafqpH3-12">
          <mxGeometry relative="1" as="geometry">
            <mxPoint x="460" y="230" as="targetPoint" />
            <Array as="points">
              <mxPoint x="530" y="165" />
              <mxPoint x="460" y="165" />
            </Array>
          </mxGeometry>
        </mxCell>
        <mxCell id="7wuV0SCUWrZMiEafqpH3-15" value="inject imixs workflow service" style="edgeLabel;html=1;align=center;verticalAlign=middle;resizable=0;points=[];" vertex="1" connectable="0" parent="7wuV0SCUWrZMiEafqpH3-14">
          <mxGeometry x="0.2822" relative="1" as="geometry">
            <mxPoint x="68" y="-25" as="offset" />
          </mxGeometry>
        </mxCell>
        <mxCell id="7wuV0SCUWrZMiEafqpH3-12" value="imixs work flow service" style="rounded=0;whiteSpace=wrap;html=1;" vertex="1" parent="1">
          <mxGeometry x="470" y="40" width="120" height="60" as="geometry" />
        </mxCell>
        <mxCell id="7wuV0SCUWrZMiEafqpH3-18" value="permits db" style="shape=cylinder3;whiteSpace=wrap;html=1;boundedLbl=1;backgroundOutline=1;size=15;" vertex="1" parent="1">
          <mxGeometry x="690" y="220" width="60" height="80" as="geometry" />
        </mxCell>
        <mxCell id="7wuV0SCUWrZMiEafqpH3-19" value="imixs workflow table Document" style="text;html=1;align=center;verticalAlign=middle;resizable=0;points=[];autosize=1;strokeColor=none;fillColor=none;" vertex="1" parent="1">
          <mxGeometry x="490" y="230" width="190" height="30" as="geometry" />
        </mxCell>
        <mxCell id="7wuV0SCUWrZMiEafqpH3-23" value="Inject Imixs workflow service in Process Service&amp;nbsp;" style="text;html=1;align=center;verticalAlign=middle;resizable=0;points=[];autosize=1;strokeColor=none;fillColor=none;" vertex="1" parent="1">
          <mxGeometry x="20" y="20" width="280" height="30" as="geometry" />
        </mxCell>
      </root>
    </mxGraphModel>
  </diagram>
</mxfile>
